<svg width="300" height="225" viewBox="0 0 300 225" fill="none" xmlns="http://www.w3.org/2000/svg">
<path opacity="0.45" d="M152.145 204.247C222.768 204.247 280.02 199.755 280.02 194.212C280.02 188.67 222.768 184.177 152.145 184.177C81.5216 184.177 24.27 188.67 24.27 194.212C24.27 199.755 81.5216 204.247 152.145 204.247Z" fill="#E6E6E6"/>
<path d="M81.0451 183C81.0451 183 81.0901 185.955 83.3926 186.975C85.6951 187.995 85.5226 190.53 83.1826 190.402C80.8426 190.275 76.2676 185.625 76.2676 185.625L78.0001 181.35L81.0451 183Z" fill="#3DD5FF"/>
<path d="M72 151.965C72 151.965 85.7625 152.573 84.2625 161.91C82.7625 171.248 76.6875 181.35 76.6875 181.35L81.9825 183.563C81.9825 183.563 92.4825 171.503 93.51 156.623C94.5375 141.743 73.44 145.065 72 151.965Z" fill="#24285B"/>
<path opacity="0.08" d="M72 151.965C72 151.965 85.7625 152.573 84.2625 161.91C82.7625 171.248 76.6875 181.35 76.6875 181.35L81.9825 183.563C81.9825 183.563 92.4825 171.503 93.51 156.623C94.5375 141.743 73.44 145.065 72 151.965Z" fill="black"/>
<path d="M62.4825 95.49C57.4875 91.6275 49.9725 93.6075 47.88 99.57C47.237 101.426 47.2186 103.44 47.8275 105.307C50.205 112.935 53.955 123.307 67.95 127.057C81.945 130.807 93.705 133.612 94.83 128.7C95.955 123.787 92.8275 117.54 81.33 113.7C73.1475 110.925 68.835 100.395 62.4825 95.49Z" fill="#3DD5FF"/>
<path opacity="0.08" d="M62.4825 95.49C57.4875 91.6275 49.9725 93.6075 47.88 99.57C47.237 101.426 47.2186 103.44 47.8275 105.307C50.205 112.935 53.955 123.307 67.95 127.057C81.945 130.807 93.705 133.612 94.83 128.7C95.955 123.787 92.8275 117.54 81.33 113.7C73.1475 110.925 68.835 100.395 62.4825 95.49Z" fill="black"/>
<path d="M92.1076 183.645C92.1076 183.645 92.1076 186.6 94.4551 187.62C96.8026 188.64 96.5851 191.175 94.2376 191.048C91.8901 190.92 87.3301 186.27 87.3301 186.27L89.0251 181.988L92.1076 183.645Z" fill="#3DD5FF"/>
<path d="M236.813 133.328L213.398 116.025C213.398 116.025 206.04 110.775 204.848 115.275C203.655 119.775 212.123 120.525 212.123 120.525C212.123 120.525 226.448 143.438 233.633 140.708C240.818 137.978 236.813 133.328 236.813 133.328Z" fill="#F4A28C"/>
<path opacity="0.08" d="M236.813 133.328L213.398 116.025C213.398 116.025 206.04 110.775 204.848 115.275C203.655 119.775 212.123 120.525 212.123 120.525C212.123 120.525 226.448 143.438 233.633 140.708C240.818 137.978 236.813 133.328 236.813 133.328Z" fill="black"/>
<path d="M214.627 160.92L235.492 183.638L238.372 182.393L222.63 154.425L214.627 160.92Z" fill="#F4A28C"/>
<path d="M235.11 183.06C235.11 183.06 235.11 185.888 233.235 187.17C231.36 188.453 233.07 191.16 235.725 188.67C236.544 187.911 237.297 187.083 237.975 186.195C238.63 185.398 239.484 184.787 240.45 184.425C240.63 184.343 240.78 184.207 240.881 184.037C240.981 183.867 241.027 183.67 241.013 183.473C241.095 181.898 237.413 181.223 237.413 181.223L235.11 183.06Z" fill="#3DD5FF"/>
<path d="M228.142 140.655C228.142 140.655 199.005 140.438 203.227 157.688C204.376 162.648 206.612 167.29 209.776 171.279C212.94 175.268 216.952 178.503 221.52 180.75L232.02 161.498L226.245 144.75L228.142 140.655Z" fill="#24285B"/>
<path opacity="0.08" d="M228.142 140.655C228.142 140.655 199.005 140.438 203.227 157.688C204.376 162.648 206.612 167.29 209.776 171.279C212.94 175.268 216.952 178.503 221.52 180.75L232.02 161.498L226.245 144.75L228.142 140.655Z" fill="black"/>
<path d="M244.553 156.127H241.448V182.91H244.553V156.127Z" fill="#C9C9C9"/>
<path d="M253.29 91.2076C253.29 91.2076 256.147 75.8926 269.895 82.8226C280.027 87.9301 270.127 128.663 264.225 149.73C263.211 153.335 261.046 156.509 258.06 158.768C255.075 161.028 251.432 162.25 247.688 162.248H228.3C222.368 162.248 221.31 153.795 227.055 152.333L227.393 152.25C230.738 151.5 234.66 150.87 238.23 150.398C241.252 150.008 244.047 148.59 246.145 146.381C248.243 144.172 249.516 141.308 249.75 138.27L253.29 91.2076Z" fill="#E6E6E6"/>
<path d="M239.513 76.665C239.499 78.3807 239.713 80.0908 240.15 81.75C240.216 81.9431 240.319 82.1213 240.454 82.2745C240.589 82.4277 240.753 82.5528 240.936 82.6426C241.119 82.7325 241.318 82.7853 241.522 82.7982C241.725 82.811 241.93 82.7836 242.123 82.7175C242.757 82.5408 243.327 82.1852 243.765 81.6931C244.202 81.201 244.489 80.5932 244.59 79.9425L245.303 77.19C245.388 76.6232 245.295 76.0439 245.037 75.532C244.779 75.0201 244.369 74.601 243.863 74.3325C242.033 73.2225 239.438 74.79 239.513 76.665Z" fill="#F4A28C"/>
<path d="M245.76 78.8175L246.63 88.8825L241.05 88.9725L242.618 81.795L245.76 78.8175Z" fill="#F4A28C"/>
<path d="M239.595 78.6074L238.845 79.8599C238.802 79.931 238.777 80.0118 238.773 80.095C238.769 80.1782 238.786 80.261 238.823 80.3358C238.86 80.4106 238.915 80.4749 238.983 80.5228C239.051 80.5707 239.13 80.6007 239.213 80.6099L240.405 80.7374L239.595 78.6074Z" fill="#F4A28C"/>
<path opacity="0.31" d="M242.573 81.9975C243.243 81.8692 243.865 81.5607 244.373 81.105C244.373 81.105 244.77 83.28 242.123 84.0525L242.573 81.9975Z" fill="#CE8172"/>
<path d="M209.73 156.127V186.967L212.7 187.995L220.02 156.75L209.73 156.127Z" fill="#F4A28C"/>
<path d="M209.843 186.285C209.843 186.285 207.9 188.348 205.68 188.048C203.46 187.748 202.852 190.875 206.475 190.86C207.601 190.859 208.725 190.764 209.835 190.575C210.85 190.433 211.884 190.56 212.835 190.943C213.024 191.004 213.226 191.006 213.416 190.95C213.606 190.894 213.775 190.781 213.9 190.628C215.018 189.518 212.753 186.54 212.753 186.54L209.843 186.285Z" fill="#3DD5FF"/>
<path d="M245.55 78.8475C245.55 78.8475 245.475 77.6625 246.375 77.685C247.275 77.7075 247.38 79.4175 246.18 79.6725L245.55 78.8475Z" fill="#F4A28C"/>
<path d="M240.142 76.5C241.123 76.6596 242.124 76.6596 243.105 76.5C243.105 76.5 243.735 79.92 246.45 80.7825C246.45 80.7825 249.022 75.6675 245.865 73.6875C243.225 72.03 241.252 70.56 239.077 72.5325C238.763 72.8179 238.534 73.1843 238.414 73.5916C238.295 73.9988 238.29 74.4311 238.4 74.8411C238.51 75.251 238.731 75.6227 239.038 75.9153C239.345 76.2079 239.728 76.4102 240.142 76.5Z" fill="#24285B"/>
<path d="M247.628 75.27C249.322 75.27 250.695 73.8966 250.695 72.2025C250.695 70.5084 249.322 69.135 247.628 69.135C245.933 69.135 244.56 70.5084 244.56 72.2025C244.56 73.8966 245.933 75.27 247.628 75.27Z" fill="#24285B"/>
<path d="M243.052 78.27C243.052 78.27 243.187 76.8975 244.282 77.115C245.377 77.3325 245.362 78.93 243.982 79.5601L243.052 78.27Z" fill="#F4A28C"/>
<path d="M240.66 90.5699L246.112 89.0024C246.112 89.0024 260.67 90.5699 260.52 102.247C260.407 110.902 250.305 143.25 250.305 143.25H228.142V131.857C228.192 126.465 226.928 121.142 224.46 116.347C221.032 109.852 219.24 98.5499 240.66 90.5699Z" fill="#3DD5FF"/>
<path d="M236.535 104.452C237.428 94.1925 251.948 92.9175 254.753 102.825C256.253 108.075 257.003 115.65 255.278 126.307C251.145 152.002 201.645 135.307 201.645 135.307V129.217C201.645 129.217 230.895 134.722 237.923 127.222C242.055 122.827 235.815 112.755 236.535 104.452Z" fill="#3DD5FF"/>
<path d="M228.143 137.925L250.305 143.25C250.305 143.25 251.378 152.813 243.668 153.563C235.958 154.313 212.333 151.688 221.52 180.75H203.25C203.25 180.75 192.143 149.52 219.293 143.25C222.585 142.5 228.105 141.87 228.158 138.488L228.143 137.925Z" fill="#24285B"/>
<path d="M129 81.3824C124.538 84.0799 120.806 87.8299 118.13 92.3042C115.453 96.7785 113.914 101.841 113.647 107.047C112.702 124.072 114.247 142.335 135.825 140.287C157.403 138.24 129 81.3824 129 81.3824Z" fill="#3DD5FF"/>
<path opacity="0.08" d="M129 81.3824C124.538 84.0799 120.806 87.8299 118.13 92.3042C115.453 96.7785 113.914 101.841 113.647 107.047C112.702 124.072 114.247 142.335 135.825 140.287C157.403 138.24 129 81.3824 129 81.3824Z" fill="black"/>
<path d="M142.087 63.5775C141.82 65.5685 141.82 67.5864 142.087 69.5775C142.137 69.81 142.231 70.0306 142.365 70.2266C142.5 70.4227 142.671 70.5903 142.871 70.7198C143.07 70.8494 143.293 70.9384 143.526 70.9818C143.76 71.0251 144 71.022 144.232 70.9725C144.991 70.8588 145.701 70.5288 146.277 70.022C146.853 69.5152 147.271 68.8531 147.48 68.115L148.695 65.0175C148.878 64.3752 148.858 63.6918 148.636 63.0617C148.414 62.4316 148.003 61.8859 147.457 61.5C145.5 59.94 142.267 61.395 142.087 63.5775Z" fill="#F4A28C"/>
<path d="M148.507 65.5575L149.842 77.265L143.34 77.5425L144.975 68.91L148.507 65.5575Z" fill="#F4A28C"/>
<path d="M141.908 65.8425L140.85 67.1775C140.789 67.2539 140.749 67.3444 140.732 67.4406C140.716 67.5369 140.725 67.6356 140.757 67.7278C140.789 67.8199 140.844 67.9024 140.917 67.9675C140.989 68.0326 141.077 68.0782 141.173 68.1L142.53 68.415L141.908 65.8425Z" fill="#F4A28C"/>
<path opacity="0.31" d="M144.54 70.7851C145.357 70.6189 146.106 70.2143 146.692 69.6226C146.692 69.6226 146.505 71.7751 144.052 73.7926L144.54 70.7851Z" fill="#CE8172"/>
<path d="M136.117 78.57C136.117 78.57 164.01 72.3225 174 77.925C183.99 83.5275 164.385 136.313 164.385 136.313L133.582 135.338C133.582 135.338 106.635 83.9325 136.117 78.57Z" fill="#3DD5FF"/>
<path d="M142.35 185.88C142.35 185.88 140.91 188.467 138.398 188.272C135.885 188.077 134.843 190.395 136.965 191.392C139.088 192.39 145.312 190.455 145.312 190.455L145.845 185.88H142.35Z" fill="#3DD5FF"/>
<path d="M164.91 185.31C164.91 185.31 165.93 188.085 168.45 188.272C170.97 188.46 171.638 190.92 169.388 191.58C167.138 192.24 161.25 189.375 161.25 189.375L161.422 184.777L164.91 185.31Z" fill="#3DD5FF"/>
<path opacity="0.08" d="M160.335 82.8225C160.335 82.8225 151.5 88.5 156 101.565C160.5 114.63 161.212 123.96 150.63 120.69C140.047 117.42 140.82 102.818 140.82 102.818L130.027 104.49L129 125.205L133.583 135.338L160.335 133.658L171.24 130.875L175.305 117.21L167.903 94.0575L160.335 82.8225Z" fill="black"/>
<path d="M133.583 135.337L141.465 185.88H146.61C146.61 185.88 141.84 147.87 150.173 143.28C158.505 138.69 160.14 185.88 160.14 185.88L165.608 185.445L165.54 133.335L133.583 135.337Z" fill="#24285B"/>
<path d="M165.75 76.2676C165.75 76.2676 183.105 73.3426 183.105 100.65C183.105 127.958 178.935 152.258 138.855 127.905L141.9 123.255C141.9 123.255 163.5 132.75 168.112 124.41C172.725 116.07 150.09 80.8951 165.75 76.2676Z" fill="#3DD5FF"/>
<path opacity="0.46" d="M165.75 76.2676C165.75 76.2676 183.105 73.3426 183.105 100.65C183.105 127.958 178.935 152.258 138.855 127.905L141.9 123.255C141.9 123.255 163.5 132.75 168.112 124.41C172.725 116.07 150.09 80.8951 165.75 76.2676Z" fill="white"/>
<path d="M134.052 100.553L119.36 104.249L124.891 126.237L139.583 122.541L134.052 100.553Z" fill="#FFD200"/>
<path d="M141.953 123.255C141.953 123.255 134.723 117.525 133.583 121.905C132.443 126.285 139.95 126.307 139.95 126.307L141.953 123.255Z" fill="#F4A28C"/>
<path d="M177.315 52.695C187.136 52.695 195.097 46.0699 195.097 37.8975C195.097 29.725 187.136 23.1 177.315 23.1C167.494 23.1 159.532 29.725 159.532 37.8975C159.532 46.0699 167.494 52.695 177.315 52.695Z" fill="#24285B"/>
<path d="M164.91 44.655L158.58 55.425L169.005 47.6925L164.91 44.655Z" fill="#24285B"/>
<path d="M170.31 40.095C171.524 40.095 172.508 39.1111 172.508 37.8975C172.508 36.6838 171.524 35.7 170.31 35.7C169.096 35.7 168.113 36.6838 168.113 37.8975C168.113 39.1111 169.096 40.095 170.31 40.095Z" fill="white"/>
<path d="M177.353 40.095C178.566 40.095 179.55 39.1111 179.55 37.8975C179.55 36.6838 178.566 35.7 177.353 35.7C176.139 35.7 175.155 36.6838 175.155 37.8975C175.155 39.1111 176.139 40.095 177.353 40.095Z" fill="white"/>
<path d="M184.32 40.095C185.534 40.095 186.518 39.1111 186.518 37.8975C186.518 36.6838 185.534 35.7 184.32 35.7C183.106 35.7 182.123 36.6838 182.123 37.8975C182.123 39.1111 183.106 40.095 184.32 40.095Z" fill="white"/>
<path d="M142.785 63.7501C143.05 63.8386 143.321 63.9113 143.595 63.9676C143.985 64.0517 144.364 64.1774 144.727 64.3426L145.02 64.4701C145.227 64.56 145.403 64.7091 145.526 64.8985C145.648 65.0879 145.712 65.3094 145.71 65.5351C145.71 66.6826 146.07 68.7901 148.845 69.0301C148.845 69.0301 151.665 64.8001 149.407 61.5301C148.744 60.6376 147.889 59.905 146.905 59.3859C145.921 58.8668 144.834 58.5744 143.722 58.5301C140.7 58.4251 139.912 62.7826 142.785 63.7501Z" fill="#24285B"/>
<path d="M61.305 182.902H64.41V156.12H61.305V182.902Z" fill="#C9C9C9"/>
<path d="M52.5675 91.2076C52.5675 91.2076 49.71 75.8926 36 82.8226C25.8675 87.9301 35.7675 128.663 41.67 149.73C42.6842 153.335 44.8491 156.509 47.8348 158.768C50.8204 161.028 54.463 162.25 58.2075 162.248H77.595C83.5275 162.248 84.585 153.795 78.84 152.333L78.5025 152.25C75.1575 151.5 71.235 150.87 67.665 150.398C64.6475 150.003 61.8575 148.583 59.7638 146.374C57.6701 144.166 56.4002 141.304 56.1675 138.27L52.5675 91.2076Z" fill="#E6E6E6"/>
<path d="M64.41 182.91L75.525 191.678H50.775L61.2975 182.91H64.41Z" fill="#C9C9C9"/>
<path d="M62.6025 71.1599C63.0003 73.093 63.139 75.0703 63.015 77.04C62.9464 77.5049 62.6964 77.9238 62.3197 78.2049C61.943 78.486 61.4703 78.6065 61.005 78.54C60.2499 78.4813 59.5276 78.207 58.9239 77.7496C58.3203 77.2922 57.8608 76.671 57.6 75.96L56.1825 73.0125C55.9599 72.3908 55.9363 71.7152 56.1151 71.0795C56.2938 70.4438 56.666 69.8795 57.18 69.465C58.995 67.8375 62.25 68.9999 62.6025 71.1599Z" fill="#F4A28C"/>
<path d="M56.4375 73.575L55.98 85.185L62.3925 84.9825L60.1575 76.62L56.4375 73.575Z" fill="#F4A28C"/>
<path d="M61.7475 71.415C60.6736 71.5833 59.5841 71.6286 58.5 71.55C58.871 71.9903 59.105 72.5297 59.173 73.1015C59.241 73.6733 59.14 74.2524 58.8825 74.7675C58.6424 75.2723 58.2343 75.6778 57.728 75.9145C57.2216 76.1513 56.6487 76.2045 56.1075 76.065L55.635 71.565C55.5424 70.9198 55.6268 70.2616 55.8791 69.6606C56.1314 69.0596 56.5421 68.5383 57.0675 68.1525C57.5239 67.8067 58.0025 67.4911 58.5 67.2075C59.7375 66.525 61.755 67.2075 62.8125 66.15C62.9207 66.0493 63.053 65.9782 63.1966 65.9434C63.3402 65.9085 63.4904 65.9112 63.6327 65.9511C63.775 65.991 63.9047 66.0668 64.0093 66.1712C64.1139 66.2757 64.1898 66.4052 64.23 66.5475C64.5975 67.905 64.605 70.095 62.835 71.0475C62.4955 71.2297 62.1279 71.3539 61.7475 71.415Z" fill="#24285B"/>
<path d="M59.25 74.6175C59.25 74.6175 59.0625 73.2675 58.0575 73.4925C57.0525 73.7175 57.3075 75.675 58.7175 75.69L59.25 74.6175Z" fill="#F4A28C"/>
<path d="M62.9475 73.3726L64.0875 74.6101C64.1525 74.6806 64.1987 74.7665 64.2218 74.8596C64.2448 74.9528 64.244 75.0503 64.2193 75.1431C64.1946 75.2358 64.1469 75.3208 64.0806 75.3902C64.0143 75.4596 63.9315 75.5112 63.84 75.5401L62.5275 75.9526L62.9475 73.3726Z" fill="#F4A28C"/>
<path opacity="0.31" d="M60.75 78.4274C59.9189 78.3314 59.1354 77.9892 58.5 77.4449C58.5 77.4449 58.845 79.5449 61.41 81.3524L60.75 78.4274Z" fill="#CE8172"/>
<path d="M55.98 85.1849L62.3925 84.9824C62.3925 84.9824 76.47 87.9824 79.92 105.855C83.37 123.727 73.5 139.71 73.5 139.71L53.25 139.89C53.25 139.89 26.4 88.2074 55.98 85.1849Z" fill="#3DD5FF"/>
<path d="M53.25 139.89C53.25 139.89 53.52 151.5 61.38 152.498C69.24 153.495 87.24 147.45 89.49 157.253C91.74 167.055 87.24 182.64 87.24 182.64L92.7225 184.14C92.7225 184.14 105.038 160.575 97.785 149.4C90.5325 138.225 73.5225 139.65 73.5225 139.65L53.25 139.89Z" fill="#24285B"/>
<path opacity="0.08" d="M51 98.0699C51 98.0699 45.855 112.447 54.75 120.255C63.645 128.062 68.7525 129 64.2375 139.89L73.5 139.71C73.5 139.71 78.3675 130.86 79.35 124.59C80.3325 118.32 51 98.0699 51 98.0699Z" fill="black"/>
<path d="M66.1049 90.9975C61.1099 87.135 53.5949 89.115 51.5024 95.0775C50.8595 96.9331 50.841 98.948 51.4499 100.815C53.8274 108.443 57.5774 118.815 71.5799 122.565C85.5824 126.315 97.3274 129.12 98.4524 124.215C99.5774 119.31 96.4499 113.055 84.9524 109.215C76.7774 106.433 72.4574 95.9025 66.1049 90.9975Z" fill="#3DD5FF"/>
<path opacity="0.46" d="M66.1049 90.9975C61.1099 87.135 53.5949 89.115 51.5024 95.0775C50.8595 96.9331 50.841 98.948 51.4499 100.815C53.8274 108.443 57.5774 118.815 71.5799 122.565C85.5824 126.315 97.3274 129.12 98.4524 124.215C99.5774 119.31 96.4499 113.055 84.9524 109.215C76.7774 106.433 72.4574 95.9025 66.1049 90.9975Z" fill="white"/>
<path d="M82.5975 108.135C82.5975 108.135 86.475 105.27 89.475 108.135C92.475 111 86.535 115.118 82.5975 108.135Z" fill="#F4A28C"/>
<path opacity="0.08" d="M239.123 98.715C239.123 98.715 228.315 102.622 232.02 115.747C235.725 128.872 228.135 130.875 228.135 130.875L237.923 140.445L250.305 143.25L254.183 130.192L239.123 98.715Z" fill="black"/>
<path d="M101.46 141.555H96.4199V192H101.46V141.555Z" fill="#A5A5A5"/>
<path d="M205.748 141.555H200.708V192H205.748V141.555Z" fill="#A5A5A5"/>
<path d="M210.405 133.65H91.335V146.933H210.405V133.65Z" fill="#E6E6E6"/>
<path d="M145.77 67.5C145.673 67.3764 145.611 67.2297 145.589 67.0744C145.566 66.9192 145.585 66.7608 145.642 66.615C145.845 66.1275 146.242 65.49 146.895 65.5875C147.547 65.685 147.69 66.7575 147.232 67.47C147.149 67.5861 147.039 67.6807 146.912 67.746C146.785 67.8113 146.644 67.8453 146.501 67.8453C146.358 67.8453 146.217 67.8113 146.09 67.746C145.963 67.6807 145.853 67.5861 145.77 67.47V67.5Z" fill="#F4A28C"/>
<path d="M236.535 104.452C237.428 94.1925 251.948 92.9175 254.753 102.825C256.253 108.075 257.003 115.65 255.278 126.307C251.145 152.002 201.645 135.307 201.645 135.307V129.217C201.645 129.217 230.895 134.722 237.923 127.222C242.055 122.827 235.815 112.755 236.535 104.452Z" fill="#F4A28C"/>
<path d="M175.335 133.65L168.922 109.748L172.035 109.08L178.08 129.998L195.577 131.498V133.65H175.335Z" fill="#FFD200"/>
<path d="M201.645 129.248C201.645 129.248 195.225 126.128 193.207 128.625C191.19 131.123 193.522 134.873 201.645 135.338V129.248Z" fill="#F4A28C"/>
<path d="M204.004 128.331L201.116 128.043L200.306 136.163L203.194 136.451L204.004 128.331Z" fill="#3DD5FF"/>
<path d="M241.448 182.91L230.333 191.678H255.083L244.56 182.91H241.448Z" fill="#C9C9C9"/>
<path d="M237.923 91.6575C237.747 90.8484 237.859 90.0035 238.238 89.2674C238.617 88.5313 239.24 87.9498 240 87.6225C242.767 86.25 249.33 84.6225 250.305 89.9775C250.305 90 244.208 93.945 237.923 91.6575Z" fill="#3DD5FF"/>
<path opacity="0.46" d="M237.923 91.6575C237.747 90.8484 237.859 90.0035 238.238 89.2674C238.617 88.5313 239.24 87.9498 240 87.6225C242.767 86.25 249.33 84.6225 250.305 89.9775C250.305 90 244.208 93.945 237.923 91.6575Z" fill="white"/>
</svg>
