<svg width="640" height="720" viewBox="0 0 640 720" fill="none" xmlns="http://www.w3.org/2000/svg">
<rect width="640" height="720" fill="#E2EDFF"/>
<rect x="484" y="172" width="150" height="150" rx="75" fill="#3DD5FF"/>
<rect opacity="0.18" x="423" y="285" width="75" height="75" rx="37.5" fill="#3DD5FF"/>
<path d="M359.262 384.425C359.262 384.425 420.3 410.675 412.762 472.488C405.225 534.3 352.762 528.088 352.762 528.088L359.262 384.425Z" fill="#3DD5FF"/>
<path opacity="0.08" d="M359.262 384.425C359.262 384.425 420.3 410.675 412.762 472.488C405.225 534.3 352.762 528.088 352.762 528.088L359.262 384.425Z" fill="black"/>
<path d="M320.862 351.787C320.862 351.787 321.712 358.662 320.712 363.287C320.613 363.735 320.427 364.158 320.164 364.534C319.901 364.909 319.567 365.229 319.18 365.475C318.794 365.721 318.363 365.889 317.911 365.968C317.46 366.047 316.997 366.037 316.55 365.937C315.082 365.713 313.711 365.068 312.602 364.081C311.493 363.094 310.693 361.807 310.3 360.375L308.012 354.4C307.688 353.158 307.754 351.846 308.201 350.643C308.649 349.44 309.456 348.404 310.512 347.675C314.375 344.725 320.562 347.575 320.862 351.787Z" fill="#F4A28C"/>
<path d="M308.25 357.963L307.887 380.65L320.4 379.95L315.637 363.725L308.25 357.963Z" fill="#F4A28C"/>
<path d="M307.362 359.8C307.368 359.946 307.423 360.086 307.518 360.198C307.614 360.309 307.744 360.384 307.887 360.413C308.863 360.653 309.89 360.566 310.811 360.167C311.732 359.767 312.497 359.076 312.987 358.2C313.574 357.24 313.866 356.128 313.826 355.004C313.786 353.879 313.416 352.791 312.762 351.875C314.879 352.205 317.026 352.293 319.162 352.138C319.881 352.084 320.585 351.915 321.25 351.638L322.85 346.375C322.85 346.375 325.512 341.088 322.412 340.125C319.312 339.163 317.987 342.625 315.437 340.125C312.887 337.625 312.287 336.763 309.762 338.2C307.237 339.638 310.2 341.6 306.012 341.7C301.825 341.8 301.762 343.525 301.787 345.45C301.886 346.103 302.182 346.709 302.637 347.188C305.538 350.768 307.197 355.195 307.362 359.8Z" fill="#24285B"/>
<path d="M321.175 356.138L323.188 358.75C323.301 358.897 323.376 359.071 323.405 359.254C323.435 359.438 323.418 359.626 323.355 359.802C323.293 359.977 323.188 360.134 323.05 360.258C322.911 360.382 322.744 360.47 322.563 360.512L319.938 361.1L321.175 356.138Z" fill="#F4A28C"/>
<path opacity="0.31" d="M316.25 365.9C316.25 365.9 314.638 366 311.25 364.138C311.25 364.138 311.887 368.625 317.675 370.662L316.25 365.9Z" fill="#CE8172"/>
<path d="M283.863 382.988C283.863 382.988 365.35 367.4 377.613 400.85C388.863 431.45 366.025 508.063 366.025 508.063L294.7 512.838C294.7 512.838 216.863 401.825 283.863 382.988Z" fill="#3DD5FF"/>
<path d="M366.025 508.063L376.85 532.888L286.65 532.113L294.7 512.838L366.025 508.063Z" fill="#24285B"/>
<path opacity="0.08" d="M293.312 399.488C293.312 399.488 315.4 408.813 305.812 439.85C296.225 470.888 295.225 489.675 311.25 483.163C311.25 483.163 335.8 448.663 341.462 425.863L343.387 415.863L369.05 421.388L358.325 468.888L341.837 468.125L328.462 510.488L294.712 512.75L266.35 483.45L270.187 453.263L293.312 399.488Z" fill="black"/>
<path d="M290 396.125C287.694 394.382 285.062 393.119 282.259 392.41C279.456 391.702 276.54 391.563 273.682 392.001C270.825 392.439 268.084 393.446 265.622 394.961C263.161 396.477 261.028 398.471 259.35 400.825C248.975 415.2 237.112 443.788 253.862 490.063C272.425 541.312 310.112 517.387 331.362 461.188L324.462 454.938C324.462 454.938 295 501.638 283.862 479.463C274.412 460.75 313.012 414.125 290 396.125Z" fill="#3DD5FF"/>
<path d="M361.893 410.581L325.41 402.64L315.129 449.872L351.612 457.813L361.893 410.581Z" fill="#24285B"/>
<path opacity="0.46" d="M290 396.125C287.694 394.382 285.062 393.119 282.259 392.41C279.456 391.702 276.54 391.563 273.682 392.001C270.825 392.439 268.084 393.446 265.622 394.961C263.161 396.477 261.028 398.471 259.35 400.825C248.975 415.2 237.112 443.788 253.862 490.063C272.425 541.312 310.112 517.387 331.362 461.188L324.462 454.938C324.462 454.938 295 501.638 283.862 479.463C274.412 460.75 313.012 414.125 290 396.125Z" fill="white"/>
<path d="M350.194 403.73L338.396 401.162L336.609 409.37L348.408 411.938L350.194 403.73Z" fill="#FFD200"/>
<path d="M320.962 532.888L314.325 495.387H361.362L365.437 527.35L387 527.65V532.888H320.962Z" fill="#FFD200"/>
<path d="M357.388 499.725L360.6 526.85H325.588L321.488 499.725H357.388Z" fill="white"/>
<path d="M307.813 522.025H264.838V531.587H307.813V522.025Z" fill="#FFD200"/>
<path d="M307.813 512.512H264.838V522.075H307.813V512.512Z" fill="#FFD200"/>
<path opacity="0.08" d="M307.813 512.512H264.838V522.075H307.813V512.512Z" fill="black"/>
<path d="M246.55 456.75C246.55 456.75 271.675 475.587 282.412 502.062C283.756 505.332 284.277 508.881 283.929 512.399C283.582 515.917 282.377 519.296 280.42 522.24C278.463 525.184 275.814 527.603 272.705 529.285C269.596 530.967 266.122 531.86 262.588 531.887L233.125 532.087L246.55 456.75Z" fill="#F4A28C"/>
<path d="M267.5 333.325C279.512 333.325 289.25 325.221 289.25 315.225C289.25 305.229 279.512 297.125 267.5 297.125C255.488 297.125 245.75 305.229 245.75 315.225C245.75 325.221 255.488 333.325 267.5 333.325Z" fill="#24285B"/>
<path d="M282.675 323.487L290.412 336.65L277.662 327.2L282.675 323.487Z" fill="#24285B"/>
<path d="M276.075 317.913C277.559 317.913 278.762 316.709 278.762 315.225C278.762 313.741 277.559 312.538 276.075 312.538C274.591 312.538 273.387 313.741 273.387 315.225C273.387 316.709 274.591 317.913 276.075 317.913Z" fill="white"/>
<path d="M267.45 317.913C268.934 317.913 270.137 316.709 270.137 315.225C270.137 313.741 268.934 312.538 267.45 312.538C265.966 312.538 264.762 313.741 264.762 315.225C264.762 316.709 265.966 317.913 267.45 317.913Z" fill="white"/>
<path d="M258.937 317.913C260.422 317.913 261.625 316.709 261.625 315.225C261.625 313.741 260.422 312.538 258.937 312.538C257.453 312.538 256.25 313.741 256.25 315.225C256.25 316.709 257.453 317.913 258.937 317.913Z" fill="white"/>
<path d="M320 357.5C320 357.5 319.863 354.85 317.863 355.125C315.863 355.4 316.063 359.237 318.788 359.512L320 357.5Z" fill="#F4A28C"/>
<path d="M479.575 531.6H169.125V547.725H479.575V531.6Z" fill="#E6E6E6"/>
<path d="M479.575 546.975H169.125V583.525H479.575V546.975Z" fill="#C9C9C9"/>
<path opacity="0.08" d="M355 532.088C355 532.088 344.588 570.388 320 583.525H479.562L476.375 562.5L372.225 531.6L355 532.088Z" fill="black"/>
<path d="M423.275 431.313L425.55 444.488L437.413 445.35L430.188 424.288L423.275 431.313Z" fill="#F4A28C"/>
<path d="M427.425 411.862C426.393 411.055 425.176 410.517 423.884 410.298C422.592 410.079 421.266 410.185 420.026 410.607C418.785 411.029 417.669 411.753 416.778 412.714C415.888 413.675 415.251 414.843 414.925 416.112C413.312 422.15 412.212 430.975 419.212 431.687C429.925 432.8 431.787 418.987 431.787 418.987C431.072 416.232 429.554 413.752 427.425 411.862Z" fill="#F4A28C"/>
<path d="M425.363 421.8C425.363 421.8 426.475 419.037 428.663 420.938C430.85 422.838 427.925 425.938 426.225 425.263C424.525 424.588 425.363 421.8 425.363 421.8Z" fill="#F4A28C"/>
<path d="M422.7 419.5C422.7 419.5 424.938 433.688 431.813 429.025C438.688 424.362 431.95 421.375 432.7 414.125C433.45 406.875 429.625 404.3 421.613 402.587C417.938 401.812 415.7 401.725 414.113 401.137C413.414 400.86 412.656 400.765 411.911 400.861C411.165 400.956 410.456 401.24 409.85 401.685C409.244 402.13 408.761 402.721 408.446 403.404C408.131 404.086 407.995 404.838 408.05 405.587C408.6 411.175 411.888 417.325 422.7 419.5Z" fill="#24285B"/>
<path d="M468.95 451.725C468.95 451.725 440.4 435.875 414.988 445.35C368.738 462.6 371.425 494.675 403.913 583.525L445.475 583.287L468.95 451.725Z" fill="#3DD5FF"/>
<path opacity="0.08" d="M425.138 443.413C425.138 443.413 427.888 450.175 423.15 469.85C418.413 489.525 393.925 555.463 393.925 555.463L403.638 583.05H419.125L466.763 451.25C466.763 451.25 445.225 440.113 425.138 443.413Z" fill="black"/>
<path d="M415 583.525C415 583.525 406.8 461.113 458.75 451.725C510.7 442.338 527.825 486.937 497.5 582.688L415 583.525Z" fill="#FFD200"/>
<path d="M428.213 582.687C428.213 582.687 419.463 461.112 471.35 451.725C523.238 442.337 539.238 488.387 508.913 584.137L428.213 582.687Z" fill="#FFD200"/>
<path opacity="0.08" d="M428.288 583.387C428.288 583.387 419.45 461.112 471.35 451.725C523.25 442.337 539.238 488.387 508.913 584.137L428.288 583.387Z" fill="black"/>
<path d="M419.175 476.25C418.3 459.563 397.1 452.813 386.675 465.825C378.575 475.888 372.925 490.7 373.625 512.55C374.875 557.45 345.1 583.562 345.1 583.562H375.362C375.362 583.562 401.075 553.188 415.037 505.213C418.5 493.088 419.562 483.613 419.175 476.25Z" fill="#3DD5FF"/>
<path d="M217.325 431.313L215.037 444.488L203.188 445.35L210.4 424.288L217.325 431.313Z" fill="#F4A28C"/>
<path d="M213.175 411.862C214.207 411.055 215.424 410.517 216.716 410.298C218.008 410.079 219.334 410.185 220.574 410.607C221.815 411.029 222.931 411.753 223.822 412.714C224.712 413.675 225.349 414.843 225.675 416.112C227.275 422.15 228.375 430.975 221.388 431.687C210.675 432.8 208.812 418.987 208.812 418.987C209.528 416.232 211.046 413.752 213.175 411.862Z" fill="#F4A28C"/>
<path d="M215.238 421.8C215.238 421.8 214.125 419.037 211.925 420.938C209.725 422.838 212.663 425.938 214.425 425.263C216.188 424.588 215.238 421.8 215.238 421.8Z" fill="#F4A28C"/>
<path d="M171.65 451.725C171.65 451.725 200.2 435.875 225.613 445.35C271.863 462.6 269.363 493.6 236.863 582.45L194.275 582.688L171.65 451.725Z" fill="#3DD5FF"/>
<path opacity="0.08" d="M215.337 442.812C215.337 442.812 212.587 449.575 217.325 469.25C222.062 488.925 246.55 554.85 246.55 554.85L236.837 582.5H221.35L173.75 450.675C173.75 450.675 195.25 439.512 215.337 442.812Z" fill="black"/>
<path d="M225 582.688C225 582.688 233.75 461.113 181.862 451.725C129.975 442.338 112.775 486.937 143.1 582.688H225Z" fill="#FFD200"/>
<path d="M212.388 582.688C212.388 582.688 221.137 461.113 169.25 451.725C117.363 442.338 100.1 486.937 130.438 582.688H212.388Z" fill="#FFD200"/>
<path opacity="0.08" d="M212.388 582.688C212.388 582.688 221.137 461.113 169.25 451.725C117.363 442.338 100.1 486.937 130.438 582.688H212.388Z" fill="black"/>
<path d="M200.5 437.663C202.224 435.425 203.374 432.799 203.849 430.014C204.324 427.229 204.11 424.37 203.225 421.688C201.975 417.575 201.975 412.3 206.675 406.763C217.025 394.5 231.812 403.15 226.912 410.138C222.012 417.125 219.325 420.263 219.325 420.263C219.325 420.263 237.187 439.012 227.875 450.5C219.6 460.675 185.75 456.388 200.5 437.663Z" fill="#24285B"/>
<path d="M332.238 455.875C332.238 455.875 334.5 447.912 339.738 445.35C344.975 442.788 346.438 455.175 337.625 460.675L332.238 455.875Z" fill="#F4A28C"/>
</svg>
