<svg width="306" height="300" viewBox="0 0 306 300" fill="none" xmlns="http://www.w3.org/2000/svg">
<rect opacity="0.18" width="300" height="300" rx="150" fill="#3DD5FF"/>
<path opacity="0.3" d="M150.735 232.902C216.33 232.902 269.505 226.868 269.505 219.425C269.505 211.982 216.33 205.948 150.735 205.948C85.1401 205.948 31.965 211.982 31.965 219.425C31.965 226.868 85.1401 232.902 150.735 232.902Z" fill="#E6E6E6"/>
<path d="M68.25 138.71C68.25 138.71 50.6025 147.162 48.3 166.64C45.9975 186.117 39.495 223.73 87.3675 221.585C135.24 219.44 157.815 216.77 146.528 180.192C135.24 143.615 68.25 138.71 68.25 138.71Z" fill="#FFD200"/>
<path opacity="0.09" d="M66.4425 148.827C65.9476 151.576 66.2901 154.41 67.4255 156.962C68.5609 159.513 70.4368 161.665 72.81 163.137C79.305 167.42 89.31 182.637 97.0575 190.332C98.2666 191.531 99.2217 192.961 99.866 194.537C100.51 196.113 100.831 197.803 100.807 199.505C100.807 200.892 101.37 202.43 103.2 203.93C108.585 208.332 131.182 210.53 143.82 196.985C156.457 183.44 139.792 176.735 139.792 176.735L84.2475 146.667L66.4425 148.827Z" fill="black"/>
<path d="M189.225 215.135C189.225 215.135 190.403 218.135 193.358 218.78C196.313 219.425 197.918 223.085 191.46 222.53C185.002 221.975 181.455 222.95 182.385 219.403C183.315 215.855 182.895 215.323 182.895 215.323L189.225 215.135Z" fill="#F4A28C"/>
<path d="M145.86 212.638C145.86 212.638 145.365 215.795 147.562 217.888C149.76 219.98 149.295 223.888 144.037 220.138C138.78 216.388 135.218 215.405 137.82 212.825C140.422 210.245 140.333 209.57 140.333 209.57L145.86 212.638Z" fill="#F4A28C"/>
<path d="M151.5 167.75C151.5 167.75 190.987 168.155 190.605 215.248L181.29 216.83C181.29 216.83 179.497 167.098 128.182 190.79L130.86 171.2L151.5 167.75Z" fill="#24285B"/>
<path opacity="0.09" d="M151.5 167.75C151.5 167.75 190.987 168.155 190.605 215.248L181.29 216.83C181.29 216.83 179.497 167.098 128.182 190.79L130.86 171.2L151.5 167.75Z" fill="black"/>
<path d="M154.598 124.4L158.025 125.315L155.587 122.69L154.598 124.4Z" fill="#FFD200"/>
<path d="M100.732 147.71C100.732 147.71 107.557 164.96 124.215 161.923C140.872 158.885 147.202 123.943 147.202 123.943C147.202 123.943 153.787 119.66 150.6 114.883C147.412 110.105 142.23 120.44 142.23 120.44C142.23 120.44 135.052 149.885 119.52 140.338L100.732 147.71Z" fill="#F4A28C"/>
<path opacity="0.09" d="M100.732 147.71C100.732 147.71 107.557 164.96 124.215 161.923C140.872 158.885 147.202 123.943 147.202 123.943C147.202 123.943 153.787 119.66 150.6 114.883C147.412 110.105 142.23 120.44 142.23 120.44C142.23 120.44 135.052 149.885 119.52 140.338L100.732 147.71Z" fill="black"/>
<path d="M100.943 112.67L104.543 113.42C104.543 113.42 132.368 128.525 127.193 143.652C122.018 158.78 133.32 173.142 133.32 173.142L109.125 190.182C109.125 190.182 77.52 174.5 82.2525 131.3C82.2525 131.3 84.45 111.177 100.943 112.67Z" fill="#3DD5FF"/>
<path d="M164.886 121.21L160.323 119.016L141.593 157.97L146.156 160.163L164.886 121.21Z" fill="#E6E6E6"/>
<path opacity="0.58" d="M229.5 212C229.5 212 221.82 209.9 220.147 202.752C220.147 202.752 232.05 200.345 232.388 212.63L229.5 212Z" fill="#3DD5FF"/>
<path opacity="0.73" d="M230.422 211.25C230.422 211.25 225.052 202.768 229.777 194.833C229.777 194.833 238.83 200.578 234.81 211.273L230.422 211.25Z" fill="#3DD5FF"/>
<path d="M231.802 211.25C231.802 211.25 234.637 202.288 243.21 200.593C243.21 200.593 244.822 206.413 237.66 211.273L231.802 211.25Z" fill="#3DD5FF"/>
<path d="M226.23 211.032L227.79 221.69L237.6 221.727L239.048 211.085L226.23 211.032Z" fill="#24285B"/>
<path opacity="0.66" d="M212.842 63.7175H158.408V101.833H212.842V63.7175Z" fill="#E6E6E6"/>
<path opacity="0.43" d="M261.683 117.11H212.52V151.535H261.683V117.11Z" fill="#E6E6E6"/>
<path d="M172.77 81.4325C176.278 81.4325 179.122 78.5884 179.122 75.08C179.122 71.5716 176.278 68.7275 172.77 68.7275C169.262 68.7275 166.417 71.5716 166.417 75.08C166.417 78.5884 169.262 81.4325 172.77 81.4325Z" fill="#E6E6E6"/>
<path opacity="0.45" d="M204.787 69.6875H186.9V94.535H204.787V69.6875Z" fill="#C1C1C1"/>
<path d="M179.798 86.2025H167.513V94.535H179.798V86.2025Z" fill="#C1C1C1"/>
<path d="M99.6225 93.6949L94.6125 111.357L104.542 113.42L104.205 99.7399L99.6225 93.6949Z" fill="#F4A28C"/>
<path opacity="0.31" d="M104.408 102.733C103.202 102.262 102.16 101.452 101.408 100.4C101.408 100.4 101.153 103.753 104.408 107.48V102.733Z" fill="#CE8172"/>
<path d="M109.905 94.25C109.905 94.25 109.41 99.83 107.835 103.317C107.683 103.657 107.465 103.964 107.193 104.218C106.921 104.473 106.602 104.671 106.252 104.801C105.903 104.931 105.532 104.99 105.16 104.975C104.788 104.96 104.422 104.87 104.085 104.712C102.337 103.895 100.215 102.282 100.117 99.26L99.3225 94.1525C99.2724 93.1128 99.5454 92.0831 100.104 91.2048C100.663 90.3266 101.48 89.6428 102.442 89.2475C105.967 87.5 110.377 90.83 109.905 94.25Z" fill="#F4A28C"/>
<path d="M103.208 97.895C103.208 97.895 103.545 95.765 101.918 95.645C100.29 95.525 99.7875 98.6 101.918 99.2675L103.208 97.895Z" fill="#F4A28C"/>
<path d="M109.41 97.7075L110.572 100.108C110.638 100.244 110.668 100.395 110.66 100.546C110.652 100.698 110.606 100.844 110.526 100.973C110.446 101.102 110.334 101.208 110.202 101.282C110.07 101.356 109.921 101.396 109.77 101.398H107.595L109.41 97.7075Z" fill="#F4A28C"/>
<path d="M155.591 122.689L138.457 112.796L137.471 114.505L154.605 124.397L155.591 122.689Z" fill="#24285B"/>
<path opacity="0.18" d="M114.675 180.8L109.125 190.182C109.125 190.182 89.0025 180.432 83.235 154.047C77.4675 127.662 96.495 137.945 96.495 137.945L114.675 180.8Z" fill="black"/>
<path d="M109.125 190.182C109.125 190.182 127.77 152.172 155.34 152.315C182.91 152.457 147.09 213.65 147.09 213.65L138 209.952C138 209.952 151.5 183.702 148.065 175.25C144.63 166.797 139.38 225.102 109.125 190.182Z" fill="#24285B"/>
<path d="M93.1725 114.8C93.1725 114.8 101.468 110.592 105.683 119.142C109.898 127.692 106.575 164.465 123.683 166.392C140.79 168.32 149.468 150.5 149.468 150.5C149.468 150.5 150.878 143 153.218 141.755C155.558 140.51 157.62 148.392 153.218 153.005C153.218 153.005 145.673 181.347 121.718 181.985C97.7625 182.622 69.555 134.21 93.1725 114.8Z" fill="#F4A28C"/>
<path d="M109.942 86.975C109.942 86.975 115.395 93.3875 108.337 94.73C101.28 96.0725 99.825 97.34 100.5 104.48C101.175 111.62 103.972 118.198 94.6125 122.675C85.2525 127.153 93.3 134.675 91.575 143.45C89.85 152.225 81.6225 158.285 71.085 152.3C60.5475 146.315 54.045 131 65.34 121.828C76.635 112.655 90.84 110.428 90.84 95.6375C90.84 80.8475 102.645 80.0825 109.942 86.975Z" fill="#24285B"/>
<path opacity="0.43" d="M228.142 142.34C232.343 142.34 235.747 138.935 235.747 134.735C235.747 130.535 232.343 127.13 228.142 127.13C223.942 127.13 220.537 130.535 220.537 134.735C220.537 138.935 223.942 142.34 228.142 142.34Z" fill="#C1C1C1"/>
<path opacity="0.43" d="M240.45 123.08H227.228V136.303H240.45V123.08Z" fill="#C1C1C1"/>
<path opacity="0.43" d="M254.633 123.08H244.77V144.995H254.633V123.08Z" fill="#C1C1C1"/>
<path d="M155.037 152.508L148.05 149.844L146.546 153.789L153.533 156.453L155.037 152.508Z" fill="#3DD5FF"/>
<path opacity="0.44" d="M155.037 152.508L148.05 149.844L146.546 153.789L153.533 156.453L155.037 152.508Z" fill="white"/>
</svg>
