<svg width="304" height="300" viewBox="0 0 304 300" fill="none" xmlns="http://www.w3.org/2000/svg">
<rect opacity="0.18" x="4" width="300" height="300" rx="150" fill="#3DD5FF"/>
<path opacity="0.45" d="M151.883 231.947C225.492 231.947 285.165 226.622 285.165 220.052C285.165 213.483 225.492 208.157 151.883 208.157C78.2726 208.157 18.6 213.483 18.6 220.052C18.6 226.622 78.2726 231.947 151.883 231.947Z" fill="#E6E6E6"/>
<path d="M74.865 186.453H30.2175V218.815H74.865V186.453Z" fill="#E6E6E6"/>
<path opacity="0.45" d="M79.5825 159.438H42.4725V186.332H79.5825V159.438Z" fill="#E6E6E6"/>
<path d="M257.918 163.66H251.107V162.16H257.918C258.155 162.161 258.391 162.115 258.611 162.025C258.832 161.934 259.032 161.801 259.2 161.633C259.369 161.465 259.503 161.266 259.594 161.046C259.685 160.826 259.732 160.591 259.732 160.353V155.5C259.732 155.019 259.541 154.557 259.201 154.217C258.861 153.876 258.399 153.685 257.918 153.685H251.107V152.185H257.918C258.797 152.185 259.64 152.534 260.262 153.156C260.883 153.778 261.232 154.621 261.232 155.5V160.375C261.225 161.249 260.872 162.085 260.251 162.7C259.63 163.315 258.792 163.66 257.918 163.66Z" fill="#FFD200"/>
<path opacity="0.46" d="M257.918 163.66H251.107V162.16H257.918C258.155 162.161 258.391 162.115 258.611 162.025C258.832 161.934 259.032 161.801 259.2 161.633C259.369 161.465 259.503 161.266 259.594 161.046C259.685 160.826 259.732 160.591 259.732 160.353V155.5C259.732 155.019 259.541 154.557 259.201 154.217C258.861 153.876 258.399 153.685 257.918 153.685H251.107V152.185H257.918C258.797 152.185 259.64 152.534 260.262 153.156C260.883 153.778 261.232 154.621 261.232 155.5V160.375C261.225 161.249 260.872 162.085 260.251 162.7C259.63 163.315 258.792 163.66 257.918 163.66Z" fill="white"/>
<path d="M260.145 199.315H236.332V202.375H260.145V199.315Z" fill="#ADADAD"/>
<path d="M71.7975 198.895L68.8875 218.823H75.9975L80.85 198.895H71.7975Z" fill="#C9C9C9"/>
<path d="M205.342 198.895L208.252 218.823H201.142L196.29 198.895H205.342Z" fill="#C9C9C9"/>
<path d="M57.66 182.08L59.5875 192.287C60.2045 195.56 61.9452 198.514 64.5087 200.639C67.0722 202.764 70.2976 203.927 73.6275 203.928H203.145C207.359 203.926 211.453 202.526 214.785 199.947C218.118 197.368 220.499 193.756 221.557 189.678L223.545 182.057L57.66 182.08Z" fill="#ADADAD"/>
<path d="M63.795 173.868L59.01 177.393C58.3345 177.892 57.8331 178.592 57.5763 179.392C57.3196 180.192 57.3206 181.053 57.5791 181.852C57.8376 182.652 58.3406 183.35 59.0172 183.848C59.6938 184.347 60.5097 184.62 61.35 184.63L218.325 186.325C219.361 186.34 220.378 186.049 221.249 185.487C222.119 184.925 222.804 184.118 223.217 183.168C223.63 182.218 223.753 181.167 223.57 180.147C223.386 179.127 222.905 178.185 222.188 177.438L218.79 173.868H63.795Z" fill="#C9C9C9"/>
<path d="M63.795 173.868C63.795 173.868 47.4975 121.818 84 118.585C113.865 115.938 181.672 117.625 205.26 118.323C213.082 118.555 220.192 123.093 223.26 130.12C226.95 138.573 228.27 152.395 218.835 173.868H63.795Z" fill="#E6E6E6"/>
<path d="M100.5 206.56C100.5 206.56 100.958 209.275 99 210.587C97.0425 211.9 97.6425 214.195 99.75 213.692C101.858 213.19 105.293 208.18 105.293 208.18L103.508 205.307L100.5 206.56Z" fill="#3DD5FF"/>
<path d="M57.375 98.11C67.486 98.11 75.6825 89.9134 75.6825 79.8025C75.6825 69.6915 67.486 61.495 57.375 61.495C47.2641 61.495 39.0675 69.6915 39.0675 79.8025C39.0675 89.9134 47.2641 98.11 57.375 98.11Z" fill="#E6E6E6"/>
<path d="M57.375 92.125C64.1805 92.125 69.6975 86.608 69.6975 79.8025C69.6975 72.997 64.1805 67.48 57.375 67.48C50.5695 67.48 45.0525 72.997 45.0525 79.8025C45.0525 86.608 50.5695 92.125 57.375 92.125Z" fill="#F2F2F2"/>
<path d="M57.375 71.275V79.8025L60.78 82.69" stroke="#A5A5A5" stroke-width="2" stroke-linecap="round" stroke-linejoin="round"/>
<path d="M134.64 106.562C134.64 106.562 102.923 103.202 104.123 119.972C105.323 136.742 123.098 172.472 123.098 172.472H162.038C162.038 172.472 197.01 126.452 182.632 111.872C168.255 97.2925 159.563 110.5 134.64 106.562Z" fill="#3DD5FF"/>
<path d="M135 107.965C135 107.965 130.905 119.125 137.91 121.382C144.915 123.64 148.793 114.782 146.85 110.132C144.908 105.482 135 107.965 135 107.965Z" fill="#F4A28C"/>
<path opacity="0.08" d="M123.345 128.748C123.345 128.748 119.482 160.525 139.23 163.66C158.977 166.795 168.097 163.863 168.097 163.863L162.037 172.503L122.542 171.37C122.542 171.37 110.587 145.233 109.965 142.12C109.342 139.008 123.345 128.748 123.345 128.748Z" fill="black"/>
<path opacity="0.08" d="M135 107.965C135 107.965 130.905 119.125 137.91 121.382C144.915 123.64 148.793 114.782 146.85 110.132C144.908 105.482 135 107.965 135 107.965Z" fill="black"/>
<path d="M135.75 106.81C135.971 108.224 136.114 109.648 136.177 111.077C136.237 113.042 136.867 115.952 139.965 116.53C144.735 117.415 145.965 109.862 145.965 109.862C145.965 109.862 148.965 102.782 143.805 101.815C139.192 100.937 134.797 100.315 135.75 106.81Z" fill="#F4A28C"/>
<path d="M145.71 110.17C145.71 110.17 145.98 107.875 147.96 107.973C149.94 108.07 149.198 112.353 145.71 110.17Z" fill="#F4A28C"/>
<path d="M136.897 108.887C136.897 108.887 137.602 106.69 135.742 105.947C133.882 105.205 132.825 109.435 136.897 108.887Z" fill="#F4A28C"/>
<path d="M124.365 117.91C123.53 116.182 122.345 114.646 120.885 113.401C119.424 112.156 117.721 111.229 115.882 110.678C114.044 110.127 112.111 109.965 110.206 110.201C108.302 110.438 106.468 111.068 104.82 112.052C95.295 117.677 83.6325 129.767 84.3975 155.095C85.515 191.665 137.033 166.405 137.033 166.405L135.113 160.922C135.113 160.922 96.96 172.87 104.093 151.87C110.063 134.275 131.43 132.925 124.365 117.91Z" fill="#F4A28C"/>
<path d="M124.343 171.378L162.038 172.503C162.038 172.503 188.61 174.97 188.933 184.503C189.188 192.04 157.095 187.653 143.67 185.493C136.99 184.384 130.165 184.478 123.518 185.77C113.018 187.855 102.338 184.668 105.195 206.073L99.585 207.445C99.585 207.445 84.8025 171.01 124.343 171.378Z" fill="#24285B"/>
<path d="M153.84 158.545H140.34C139.13 158.545 138.15 159.526 138.15 160.735V163.57C138.15 164.78 139.13 165.76 140.34 165.76H153.84C155.05 165.76 156.03 164.78 156.03 163.57V160.735C156.03 159.526 155.05 158.545 153.84 158.545Z" fill="#FFD200"/>
<path d="M135.112 160.923C135.112 160.923 136.8 155.313 138.682 155.26C140.565 155.208 143.362 155.155 142.905 157.255C142.447 159.355 138.952 158.29 139.335 159.73C139.717 161.17 143.587 160.593 145.522 162.048C147.457 163.503 147.772 167.433 137.032 166.405L135.112 160.923Z" fill="#F4A28C"/>
<path d="M160.132 116.687C160.548 114.815 161.349 113.05 162.483 111.503C163.617 109.957 165.06 108.663 166.721 107.704C168.382 106.745 170.224 106.141 172.13 105.932C174.037 105.723 175.966 105.912 177.795 106.487C188.362 109.772 202.5 118.847 207.585 143.672C214.927 179.5 159 166.802 159 166.802L159.6 161.02C159.6 161.02 199.478 163.862 187.703 145.067C177.818 129.325 156.75 132.932 160.132 116.687Z" fill="#F4A28C"/>
<path d="M159.577 161.02C159.577 161.02 156.645 155.95 154.8 156.332C152.955 156.715 150.225 157.307 151.147 159.25C152.07 161.193 155.235 159.347 155.197 160.833C155.16 162.318 151.252 162.655 149.7 164.515C148.147 166.375 148.77 170.268 158.977 166.765L159.577 161.02Z" fill="#F4A28C"/>
<path d="M143.858 182.08C143.858 182.08 137.558 187.893 139.658 190.33C141.758 192.768 145.71 185.83 145.71 185.83L143.858 182.08Z" fill="#3DD5FF"/>
<path d="M235.343 172.502L232.343 218.822H235.343L241.718 172.502H235.343Z" fill="#C9C9C9"/>
<path d="M260.092 172.502L263.092 218.822H260.092L253.717 172.502H260.092Z" fill="#C9C9C9"/>
<path d="M263.092 166.578H232.343V173.868H263.092V166.578Z" fill="#E6E6E6"/>
<path d="M254.977 148.75H241.718V166.577H254.977V148.75Z" fill="#FFD200"/>
<path opacity="0.08" d="M248.513 161.815C250.704 161.815 252.48 159.827 252.48 157.375C252.48 154.923 250.704 152.935 248.513 152.935C246.321 152.935 244.545 154.923 244.545 157.375C244.545 159.827 246.321 161.815 248.513 161.815Z" fill="black"/>
<path d="M243.75 148.75C243.75 148.75 241.875 142.503 246.87 141.873C251.865 141.243 258.75 142.503 256.185 135.003C253.62 127.503 250.245 129.123 253.995 120.625C257.745 112.128 267.622 127.248 271.245 119.253C274.867 111.258 279.87 114.003 284.872 117.94C289.875 121.878 290.872 134.125 280.995 136C271.117 137.875 269.122 140.013 267.12 145.51C265.117 151.008 255 148.75 255 148.75H243.75Z" fill="#E6E6E6"/>
<path d="M133.837 103.81C133.837 103.81 131.167 97.4651 136.837 95.5601C136.837 95.5601 134.588 97.0601 135.705 103.743L133.837 103.81Z" fill="#FFD200"/>
<path d="M148.74 106.578C148.74 106.578 151.74 98.2676 144.615 95.3726C144.615 95.3726 149.377 99.0626 146.865 106.323L148.74 106.578Z" fill="#FFD200"/>
<path opacity="0.08" d="M133.837 103.81C133.837 103.81 131.167 97.4651 136.837 95.5601C136.837 95.5601 134.588 97.0601 135.705 103.743L133.837 103.81Z" fill="black"/>
<path opacity="0.08" d="M148.74 106.578C148.74 106.578 151.74 98.2676 144.615 95.3726C144.615 95.3726 149.377 99.0626 146.865 106.323L148.74 106.578Z" fill="black"/>
<path d="M135.75 104.41C135.75 104.41 139.643 105.16 142.2 102.28C142.2 102.28 144.87 106.832 146.752 106.96C146.752 106.96 148.08 103.84 148.02 101.875C147.96 99.91 150.233 99.685 149.393 97.2775C148.553 94.87 146.52 94.2775 144.63 95.3725C144.63 95.3725 145.612 93.565 143.797 93.19C141.982 92.815 136.822 95.5 136.822 95.5C136.822 95.5 133.98 97.4725 135.75 104.41Z" fill="#24285B"/>
<path d="M146.842 111.438C146.842 111.438 145.717 115.593 141.78 114.52V113.5C141.78 113.5 144.578 114.64 145.868 110.785L146.842 111.438Z" fill="#FFD200"/>
<path d="M132.203 104.357C131.625 106.405 131.513 109.607 136.125 110.11L135.69 103.75C135.671 103.455 135.54 103.178 135.324 102.976C135.108 102.774 134.823 102.662 134.528 102.662C134.009 102.657 133.503 102.819 133.084 103.124C132.665 103.43 132.356 103.862 132.203 104.357Z" fill="#FFD200"/>
<path d="M150.36 106.945C150.608 109.052 150.225 112.195 145.59 112.015L147.015 105.76C147.082 105.473 147.254 105.223 147.497 105.057C147.74 104.892 148.037 104.824 148.328 104.867C148.846 104.946 149.325 105.191 149.691 105.566C150.058 105.941 150.293 106.425 150.36 106.945Z" fill="#FFD200"/>
<path d="M141.18 115.098C141.83 115.098 142.357 114.57 142.357 113.92C142.357 113.27 141.83 112.743 141.18 112.743C140.53 112.743 140.003 113.27 140.003 113.92C140.003 114.57 140.53 115.098 141.18 115.098Z" fill="#FFD200"/>
<path opacity="0.46" d="M141.18 115.098C141.83 115.098 142.357 114.57 142.357 113.92C142.357 113.27 141.83 112.743 141.18 112.743C140.53 112.743 140.003 113.27 140.003 113.92C140.003 114.57 140.53 115.098 141.18 115.098Z" fill="white"/>
<path d="M181.027 88.285C194.833 88.285 206.025 78.9703 206.025 67.48C206.025 55.9898 194.833 46.675 181.027 46.675C167.222 46.675 156.03 55.9898 156.03 67.48C156.03 78.9703 167.222 88.285 181.027 88.285Z" fill="#24285B"/>
<path d="M163.598 76.9825L154.688 92.125L169.342 81.25L163.598 76.9825Z" fill="#24285B"/>
<path d="M171.18 70.5625C172.882 70.5625 174.262 69.1824 174.262 67.48C174.262 65.7775 172.882 64.3975 171.18 64.3975C169.478 64.3975 168.098 65.7775 168.098 67.48C168.098 69.1824 169.478 70.5625 171.18 70.5625Z" fill="#3DD5FF"/>
<path d="M181.088 70.5625C182.79 70.5625 184.17 69.1824 184.17 67.48C184.17 65.7775 182.79 64.3975 181.088 64.3975C179.385 64.3975 178.005 65.7775 178.005 67.48C178.005 69.1824 179.385 70.5625 181.088 70.5625Z" fill="#3DD5FF"/>
<path d="M190.875 70.5625C192.577 70.5625 193.957 69.1824 193.957 67.48C193.957 65.7775 192.577 64.3975 190.875 64.3975C189.173 64.3975 187.793 65.7775 187.793 67.48C187.793 69.1824 189.173 70.5625 190.875 70.5625Z" fill="#3DD5FF"/>
<path d="M163.63 160.529L159.875 160.247L159.289 168.04L163.044 168.322L163.63 160.529Z" fill="#3DD5FF"/>
<path opacity="0.46" d="M163.63 160.529L159.875 160.247L159.289 168.04L163.044 168.322L163.63 160.529Z" fill="white"/>
</svg>
