<svg width="321" height="300" viewBox="0 0 321 300" fill="none" xmlns="http://www.w3.org/2000/svg">
<rect opacity="0.18" x="21" width="300" height="300" rx="150" fill="#3DD5FF"/>
<path opacity="0.45" d="M154.178 243.56C217.026 243.56 267.975 236.602 267.975 228.02C267.975 219.437 217.026 212.48 154.178 212.48C91.3289 212.48 40.38 219.437 40.38 228.02C40.38 236.602 91.3289 243.56 154.178 243.56Z" fill="#E6E6E6"/>
<path opacity="0.58" d="M214.792 214.085C214.792 214.085 205.74 211.655 203.737 203.24C203.737 203.24 217.74 200.352 218.197 214.812L214.792 214.085Z" fill="#3DD5FF"/>
<path opacity="0.73" d="M215.902 213.185C215.902 213.185 209.542 203.217 215.062 193.857C215.062 193.857 225.742 200.607 221.062 213.185H215.902Z" fill="#3DD5FF"/>
<path d="M217.5 213.185C217.5 213.185 220.792 202.618 230.88 200.578C230.88 200.578 232.8 207.418 224.392 213.185H217.5Z" fill="#3DD5FF"/>
<path d="M210.967 212.975L212.857 225.507H224.4L226.05 212.975H210.967Z" fill="#24285B"/>
<path d="M192.802 71.99H107.205V225.507H192.802V71.99Z" fill="#C9C9C9"/>
<path d="M185.138 89.495H114.285V197.533H185.138V89.495Z" fill="white"/>
<path opacity="0.08" d="M192.795 102.432H158.633V132.41H192.795V102.432Z" fill="black"/>
<path opacity="0.08" d="M192.795 146.375H153.383V176.352H192.795V146.375Z" fill="black"/>
<path opacity="0.56" d="M150.263 219.748C154.889 219.748 158.64 215.997 158.64 211.37C158.64 206.743 154.889 202.993 150.263 202.993C145.636 202.993 141.885 206.743 141.885 211.37C141.885 215.997 145.636 219.748 150.263 219.748Z" fill="white"/>
<path opacity="0.08" d="M139.312 130.768L153.382 132.868L152.947 133.805C151.544 136.967 150.738 140.362 150.57 143.818C150.465 145.498 149.512 147.793 146.347 150.493C140.947 155.098 137.475 169.925 130.305 175.715C128.183 177.484 126.461 179.685 125.253 182.17C124.045 184.655 123.38 187.368 123.3 190.13L121.905 225.5H108L111.067 171.418L114.75 152.75L123.75 143.51L132 132.868L135.75 130.768H139.312Z" fill="black"/>
<path opacity="0.12" d="M166.762 77.99H142.763V81.4925H166.762V77.99Z" fill="black"/>
<path d="M134.07 84.0275C136.228 84.0275 137.978 82.2781 137.978 80.12C137.978 77.962 136.228 76.2125 134.07 76.2125C131.912 76.2125 130.163 77.962 130.163 80.12C130.163 82.2781 131.912 84.0275 134.07 84.0275Z" fill="white"/>
<path d="M114.72 150.89L128.19 134.098L131.1 136.648L119.617 155.848L114.72 150.89Z" fill="#3DD5FF"/>
<path d="M92.4075 123.23L94.89 130.692L88.9875 134.442L86.865 121.512L92.4075 123.23Z" fill="#F4A28C"/>
<path d="M84.84 114.305C85.1465 113.594 85.626 112.971 86.2347 112.493C86.8435 112.014 87.5622 111.696 88.3255 111.566C89.0887 111.436 89.8723 111.5 90.6049 111.75C91.3375 112.001 91.9959 112.43 92.52 113C95.0325 115.678 98.0625 119.945 94.635 122.27C89.385 125.825 84.5775 119.18 84.5775 119.18C84.1827 117.565 84.274 115.869 84.84 114.305Z" fill="#F4A28C"/>
<path d="M88.6725 118.88C88.6725 118.88 87.33 117.755 86.715 119.352C86.1 120.95 88.485 121.715 89.19 120.912C89.895 120.11 88.6725 118.88 88.6725 118.88Z" fill="#F4A28C"/>
<path d="M82.095 138.102C82.9875 136.128 84.2949 134.369 85.9282 132.946C87.5615 131.522 89.4823 130.467 91.56 129.852C99.5775 127.445 114.353 130.077 118.853 137.585C125.018 147.852 115.995 180.485 115.995 180.485L89.04 182.577C89.04 182.577 74.25 155.817 82.095 138.102Z" fill="#3DD5FF"/>
<path d="M115.995 180.47L112.448 226.805H106.845L101.835 190.805L89.445 182.562L115.995 180.47Z" fill="#24285B"/>
<path d="M89.445 182.562L81.7125 226.805H87.72L100.702 190.047L89.445 182.562Z" fill="#24285B"/>
<path opacity="0.08" d="M93.8925 129.132C93.8925 129.132 81.285 169.737 117.69 172.43L115.995 180.5L89.04 182.592C89.04 182.592 79.545 167.675 79.9425 146.727C79.9425 146.727 80.175 136.37 87.4425 131.795C89.3781 130.458 91.5773 129.55 93.8925 129.132Z" fill="black"/>
<path d="M83.1225 226.708L79.5 229.378C79.3677 229.479 79.2701 229.618 79.2207 229.778C79.1714 229.937 79.1728 230.107 79.2248 230.265C79.2767 230.424 79.3766 230.562 79.5105 230.661C79.6445 230.76 79.806 230.814 79.9725 230.818H86.04C86.2515 230.816 86.4537 230.73 86.6026 230.58C86.7515 230.43 86.835 230.227 86.835 230.015V226.708H83.1225Z" fill="#3DD5FF"/>
<path d="M111.75 226.708L115.163 229.378C115.296 229.48 115.395 229.622 115.443 229.783C115.492 229.944 115.489 230.117 115.434 230.276C115.379 230.435 115.276 230.573 115.138 230.67C115.001 230.768 114.836 230.819 114.668 230.818H110.348C110.04 230.823 109.735 230.766 109.45 230.652C109.165 230.538 108.906 230.368 108.687 230.152C108.469 229.936 108.295 229.679 108.177 229.395C108.059 229.111 107.999 228.807 108 228.5V226.7L111.75 226.708Z" fill="#3DD5FF"/>
<path d="M104.88 129.627C103.537 131.783 102.825 134.272 102.825 136.812C102.825 139.352 103.537 141.842 104.88 143.997C107.82 148.962 116.377 158.622 122.22 164.997C122.88 165.72 123.703 166.276 124.62 166.618C125.537 166.96 126.522 167.08 127.494 166.966C128.466 166.852 129.398 166.509 130.211 165.965C131.024 165.42 131.697 164.69 132.172 163.835L144.75 141.702L140.49 138.972L128.977 155.847C128.977 155.847 121.08 129.95 104.88 129.627Z" fill="#3DD5FF"/>
<path opacity="0.2" d="M104.88 129.627C103.537 131.783 102.825 134.272 102.825 136.812C102.825 139.352 103.537 141.842 104.88 143.997C107.82 148.962 116.377 158.622 122.22 164.997C122.88 165.72 123.703 166.276 124.62 166.618C125.537 166.96 126.522 167.08 127.494 166.966C128.466 166.852 129.398 166.509 130.211 165.965C131.024 165.42 131.697 164.69 132.172 163.835L144.75 141.702L140.49 138.972L128.977 155.847C128.977 155.847 121.08 129.95 104.88 129.627Z" fill="white"/>
<path d="M143.25 140.75C143.25 140.75 150.382 138.133 147.473 134.098C144.563 130.063 140.475 138.973 140.475 138.973L143.25 140.75Z" fill="#F4A28C"/>
<path d="M149.727 129.032L143.3 126.153L139.103 135.524L145.53 138.403L149.727 129.032Z" fill="#FFD200"/>
<path d="M87.255 123.883L83.25 119.75C82.8371 119.32 82.5164 118.81 82.3075 118.252C82.0985 117.693 82.0058 117.098 82.035 116.503C82.1325 114.403 82.5825 111.05 84.285 108.53C87.015 104.585 90.6525 103.092 91.5525 106.505C92.4525 109.917 92.6475 105.868 94.845 107.675C97.0425 109.483 96.5925 110.555 94.845 111.515C93.0975 112.475 89.475 113.87 89.1525 116.765C88.83 119.66 91.605 121.948 87.255 123.883Z" fill="#24285B"/>
<path d="M128.872 134.697C128.872 134.697 129.765 128.54 135.735 129.132C141.705 129.725 139.522 131.247 137.115 131.382C136.625 131.485 136.172 131.718 135.803 132.056C135.433 132.393 135.161 132.824 135.015 133.302C134.662 134.382 133.695 135.777 131.122 136.662L128.872 134.697Z" fill="#F4A28C"/>
<path d="M230.28 98H158.633V127.978H230.28V98Z" fill="#FFD200"/>
<path d="M225.03 142.25H153.383V172.228H225.03V142.25Z" fill="#FFD200"/>
<path d="M190.538 104.502H166.763V119.735H190.538V104.502Z" fill="white"/>
<path d="M166.763 104.502L178.643 115.625L190.53 104.502H166.763Z" fill="#24285B"/>
<path d="M221.16 106.123H199.283V110.623H221.16V106.123Z" fill="white"/>
<path opacity="0.46" d="M221.16 113.375H199.283V117.875H221.16V113.375Z" fill="white"/>
<path d="M214.68 150.493H190.973V154.993H214.68V150.493Z" fill="white"/>
<path opacity="0.46" d="M214.68 157.745H190.973V162.245H214.68V157.745Z" fill="white"/>
<path d="M173.197 168.095C179.324 168.095 184.29 163.129 184.29 157.003C184.29 150.876 179.324 145.91 173.197 145.91C167.071 145.91 162.105 150.876 162.105 157.003C162.105 163.129 167.071 168.095 173.197 168.095Z" fill="#24285B"/>
<path d="M173.467 158.473C175.82 158.473 177.727 156.565 177.727 154.213C177.727 151.86 175.82 149.953 173.467 149.953C171.115 149.953 169.207 151.86 169.207 154.213C169.207 156.565 171.115 158.473 173.467 158.473Z" fill="white"/>
<path opacity="0.24" d="M165.75 165.237C165.75 165.237 166.673 158.727 173.183 158.39C180.083 158.037 180.615 165.237 180.615 165.237C178.577 167.077 175.928 168.096 173.183 168.096C170.437 168.096 167.788 167.077 165.75 165.237Z" fill="white"/>
<path d="M74.0625 127.632L67.905 125.112V119.262H43.7175V134.33H67.905V129.26L74.0625 127.632Z" fill="#E6E6E6"/>
<path opacity="0.12" d="M50.4 128.638C51.4148 128.638 52.2375 127.815 52.2375 126.8C52.2375 125.785 51.4148 124.963 50.4 124.963C49.3852 124.963 48.5625 125.785 48.5625 126.8C48.5625 127.815 49.3852 128.638 50.4 128.638Z" fill="black"/>
<path opacity="0.12" d="M55.77 128.638C56.7848 128.638 57.6075 127.815 57.6075 126.8C57.6075 125.785 56.7848 124.963 55.77 124.963C54.7552 124.963 53.9325 125.785 53.9325 126.8C53.9325 127.815 54.7552 128.638 55.77 128.638Z" fill="black"/>
<path opacity="0.12" d="M61.0125 128.638C62.0273 128.638 62.85 127.815 62.85 126.8C62.85 125.785 62.0273 124.963 61.0125 124.963C59.9977 124.963 59.175 125.785 59.175 126.8C59.175 127.815 59.9977 128.638 61.0125 128.638Z" fill="black"/>
</svg>
