<svg width="318" height="300" viewBox="0 0 318 300" fill="none" xmlns="http://www.w3.org/2000/svg">
<rect opacity="0.18" width="300" height="300" rx="150" fill="#3DD5FF"/>
<path opacity="0.45" d="M84.3 238.46C107.79 238.46 126.832 234.854 126.832 230.405C126.832 225.956 107.79 222.35 84.3 222.35C60.8099 222.35 41.7675 225.956 41.7675 230.405C41.7675 234.854 60.8099 238.46 84.3 238.46Z" fill="#E6E6E6"/>
<path d="M243.202 95.225H86.3775V198.275H243.202V95.225Z" fill="#E6E6E6"/>
<path d="M93.96 104.63C95.3766 104.63 96.525 103.482 96.525 102.065C96.525 100.648 95.3766 99.5 93.96 99.5C92.5434 99.5 91.395 100.648 91.395 102.065C91.395 103.482 92.5434 104.63 93.96 104.63Z" fill="#24285B"/>
<path d="M101.58 104.63C102.997 104.63 104.145 103.482 104.145 102.065C104.145 100.648 102.997 99.5 101.58 99.5C100.163 99.5 99.015 100.648 99.015 102.065C99.015 103.482 100.163 104.63 101.58 104.63Z" fill="#3DD5FF"/>
<path d="M108.765 104.63C110.182 104.63 111.33 103.482 111.33 102.065C111.33 100.648 110.182 99.5 108.765 99.5C107.348 99.5 106.2 100.648 106.2 102.065C106.2 103.482 107.348 104.63 108.765 104.63Z" fill="#FFD200"/>
<path opacity="0.08" d="M217.785 95.225L180.847 95.375L174.937 103.693L119.25 154.835L123.825 163.723L108.187 169.888H92.9475L90.93 198.275H108.75L111.27 181.7C126.187 179.713 136.02 166.04 136.02 166.04L201 138.253L192.75 119.248L203.722 113.998L204.33 117.44C204.33 117.44 210.262 115.805 210.015 110.278C209.767 104.75 209.25 97.8875 217.785 95.225Z" fill="black"/>
<path d="M187.305 74.2775C186.397 81.545 182.647 96.56 167.25 103.25L169.5 107C169.5 107 190.927 100.25 196.095 83C198.412 75.2375 196.935 71.87 194.595 70.505C193.884 70.1126 193.088 69.9015 192.276 69.8906C191.464 69.8796 190.662 70.0691 189.941 70.4422C189.22 70.8153 188.603 71.3606 188.143 72.0296C187.683 72.6986 187.395 73.4707 187.305 74.2775Z" fill="#3DD5FF"/>
<path opacity="0.2" d="M187.305 74.2775C186.397 81.545 182.647 96.56 167.25 103.25L169.5 107C169.5 107 190.927 100.25 196.095 83C198.412 75.2375 196.935 71.87 194.595 70.505C193.884 70.1126 193.088 69.9015 192.276 69.8906C191.464 69.8796 190.662 70.0691 189.941 70.4422C189.22 70.8153 188.603 71.3606 188.143 72.0296C187.683 72.6986 187.395 73.4707 187.305 74.2775Z" fill="white"/>
<path d="M189.27 62.7875L192.952 67.28L196.193 63.8L190.38 58.64L189.27 62.7875Z" fill="#F4A28C"/>
<path d="M186.675 54.5375C186.11 54.4497 185.532 54.5047 184.994 54.6974C184.455 54.8902 183.974 55.2145 183.593 55.6409C183.212 56.0673 182.944 56.5823 182.813 57.1388C182.682 57.6954 182.692 58.2759 182.842 58.8275C183.525 61.4525 184.995 65.03 187.8 63.8C192.082 61.925 189.832 56.3 189.832 56.3C188.976 55.4148 187.878 54.8017 186.675 54.5375Z" fill="#F4A28C"/>
<path d="M192.368 89.705L185.063 93.455C184.437 93.7805 183.883 94.2287 183.435 94.7728C182.986 95.3169 182.652 95.9458 182.452 96.622C182.251 97.2982 182.189 98.0078 182.269 98.7084C182.35 99.4091 182.57 100.086 182.918 100.7L189.48 112.063L192.675 109.813L188.925 99.4475C188.862 99.2761 188.835 99.0932 188.847 98.9108C188.86 98.7285 188.91 98.5508 188.996 98.3893C189.082 98.2279 189.2 98.0864 189.345 97.974C189.489 97.8617 189.655 97.7811 189.833 97.7375L197.115 95.96L195.818 99.41C195.408 100.488 195.263 101.648 195.394 102.794C195.524 103.939 195.927 105.037 196.567 105.995L203.317 116.06L205.875 114.493L202.627 105.575C202.271 104.596 202.189 103.538 202.391 102.516C202.593 101.494 203.072 100.547 203.775 99.7775L207.292 95.9225L192.368 89.705Z" fill="#24285B"/>
<path d="M263.138 181.25H219.263V209H263.138V181.25Z" fill="#F2F2F2"/>
<path opacity="0.08" d="M219.375 181.25H212.243V198.275H219.375V181.25Z" fill="black"/>
<path d="M181.207 55.49C181.207 55.49 180.022 59.3 184.147 58.3625C188.273 57.425 187.958 56.1125 187.958 56.1125C187.958 56.1125 188.273 60.6125 190.335 59.615C192.398 58.6175 191.213 56.165 190.335 54.485C189.458 52.805 188.94 52.3025 186.585 52.055C184.23 51.8075 181.5 53.18 181.207 55.49Z" fill="#24285B"/>
<path d="M188.025 58.7375C188.025 58.7375 187.852 57.455 189.09 57.7025C190.328 57.95 189.84 59.735 189.09 59.8625C188.34 59.99 188.025 58.7375 188.025 58.7375Z" fill="#F4A28C"/>
<path d="M79.2975 156.245L81.135 161.758L76.7775 164.525L75.2025 154.97L79.2975 156.245Z" fill="#F4A28C"/>
<path d="M73.71 149.645C73.9384 149.121 74.2941 148.662 74.7447 148.31C75.1954 147.958 75.7267 147.724 76.2906 147.63C76.8544 147.535 77.433 147.583 77.9738 147.768C78.5146 147.954 79.0005 148.272 79.3875 148.692C81.24 150.672 83.475 153.83 80.9475 155.54C77.07 158.165 73.515 153.29 73.515 153.29C73.2166 152.083 73.2845 150.814 73.71 149.645Z" fill="#F4A28C"/>
<path d="M76.545 153.028C76.545 153.028 75.5475 152.195 75.0975 153.373C74.6475 154.55 76.4025 155.128 76.9275 154.528C77.4525 153.928 76.545 153.028 76.545 153.028Z" fill="#F4A28C"/>
<path d="M192.172 66.3275L196.192 63.8C196.192 63.8 209.25 59.3375 213.375 63.44C217.5 67.5425 217.793 83.0225 207.292 95.9225L192.368 89.705C192.368 89.705 192.667 82.28 190.185 80.405C187.702 78.53 184.65 72.905 192.172 66.3275Z" fill="#3DD5FF"/>
<path d="M190.23 111.5C190.23 111.5 189.412 115.295 190.875 115.16C192.338 115.025 192.675 109.775 192.675 109.775L190.23 111.5Z" fill="#3DD5FF"/>
<path d="M203.392 115.887C203.392 115.887 202.575 119.675 204.037 119.547C205.5 119.42 205.83 114.162 205.83 114.162L203.392 115.887Z" fill="#3DD5FF"/>
<path d="M224.108 93.3275C224.108 93.3275 221.588 94.415 222.518 95.66C223.448 96.905 226.635 95.225 226.635 95.225L226.83 93.3275H224.108Z" fill="#F4A28C"/>
<path d="M167.557 103.692C167.557 103.692 163.417 104.03 164.287 104.982C164.715 105.498 165.253 105.911 165.862 106.19C165.862 106.19 162.862 109.542 165.045 110.21C167.227 110.877 169.357 106.7 169.357 106.7L167.557 103.692Z" fill="#F4A28C"/>
<path d="M176.05 101.745L102.913 135.5L116.301 164.506L189.437 130.751L176.05 101.745Z" fill="#FFD200"/>
<path opacity="0.58" d="M170.034 113.7L134.937 129.828L137.129 134.598L172.226 118.471L170.034 113.7Z" fill="white"/>
<path opacity="0.58" d="M174.572 123.585L139.475 139.713L141.667 144.483L176.764 128.355L174.572 123.585Z" fill="white"/>
<path d="M124.53 152.143C129.136 152.143 132.87 148.409 132.87 143.803C132.87 139.196 129.136 135.463 124.53 135.463C119.924 135.463 116.19 139.196 116.19 143.803C116.19 148.409 119.924 152.143 124.53 152.143Z" fill="white"/>
<path d="M234.18 189.747L228.33 195.433L234.18 201.125" stroke="#A5A5A5" stroke-width="2" stroke-linecap="round" stroke-linejoin="round"/>
<path d="M246.832 189.747L252.683 195.433L246.832 201.125" stroke="#A5A5A5" stroke-width="2" stroke-linecap="round" stroke-linejoin="round"/>
<path opacity="0.58" d="M161.76 86.135C161.76 86.135 154.553 84.2 153 77.51C153 77.51 164.138 75.2075 164.505 86.7125L161.76 86.135Z" fill="#3DD5FF"/>
<path opacity="0.73" d="M162.637 85.415C162.637 85.415 157.575 77.4875 161.97 70.04C161.97 70.04 170.468 75.3875 166.748 85.415H162.637Z" fill="#3DD5FF"/>
<path d="M163.935 85.415C163.935 85.415 166.552 77.015 174.577 75.3875C174.577 75.3875 176.077 80.8325 169.417 85.415H163.935Z" fill="#3DD5FF"/>
<path d="M242.782 189.747L237.173 201.125" stroke="#A5A5A5" stroke-width="2" stroke-linecap="round" stroke-linejoin="round"/>
<path opacity="0.63" d="M118.5 113.315H96.5175V117.44H118.5V113.315Z" fill="#CECECE"/>
<path d="M75.8025 163.438C75.8025 163.438 62.925 171.238 61.2375 189.538C61.0967 191.052 61.5047 192.567 62.3871 193.806C63.2695 195.045 64.5676 195.925 66.045 196.288L81.135 200L75.8025 163.438Z" fill="#3DD5FF"/>
<path opacity="0.2" d="M75.8025 163.438C75.8025 163.438 62.925 171.238 61.2375 189.538C61.0967 191.052 61.5047 192.567 62.3871 193.806C63.2695 195.045 64.5676 195.925 66.045 196.288L81.135 200L75.8025 163.438Z" fill="white"/>
<path d="M158.715 85.25L160.215 95.225H169.403L170.715 85.25H158.715Z" fill="#24285B"/>
<path d="M77.0925 151.595C77.0925 151.595 79.1475 157.49 75.555 157.122C71.9625 156.755 73.935 154.22 72.15 151.595C70.365 148.97 71.31 147.2 74.025 144.897C75.2775 143.84 76.1175 143.352 76.6125 142.79C76.823 142.541 77.0933 142.349 77.3981 142.233C77.7029 142.116 78.0322 142.079 78.3552 142.125C78.6782 142.171 78.9843 142.298 79.2449 142.494C79.5055 142.69 79.7119 142.95 79.845 143.247C80.775 145.512 80.7825 148.542 77.0925 151.595Z" fill="#24285B"/>
<path opacity="0.08" d="M243.202 122.465H210.247V174.283H243.202V122.465Z" fill="black"/>
<path d="M78.5003 184.061L53.6344 190.469L58.2281 208.293L83.0941 201.884L78.5003 184.061Z" fill="#FFD200"/>
<path opacity="0.08" d="M68.3175 186.388L71.1675 198.275L70.425 204.823L77.0925 203.098L79.08 197.788L72.675 185.255L68.3175 186.388Z" fill="black"/>
<path d="M72.825 167.27C73.4368 165.913 74.3346 164.703 75.4568 163.725C76.5791 162.746 77.8994 162.021 79.3275 161.6C84.8325 159.942 95.2875 156.477 98.3775 161.6C102.608 168.65 96.1275 196.332 96.1275 196.332L77.625 197.765C77.625 197.765 67.4175 179.435 72.825 167.27Z" fill="#3DD5FF"/>
<path d="M96.0975 196.355L93.66 228.162H89.8125L86.3775 203.45L77.8725 197.787L96.0975 196.355Z" fill="#24285B"/>
<path d="M77.8725 197.788L72.5625 228.163H76.6875L85.5975 202.933L77.8725 197.788Z" fill="#24285B"/>
<path d="M87.33 165.838C87.0805 165.057 87.0173 164.229 87.1453 163.419C87.2733 162.61 87.5891 161.842 88.0673 161.176C88.5455 160.51 89.1728 159.966 89.8992 159.586C90.6255 159.207 91.4306 159.003 92.25 158.99C94.605 158.915 97.3125 159.32 99.39 161C104.017 164.75 119.19 167.3 132.885 154.768L135.518 158.81C135.518 158.81 119.962 179.06 95.6025 173.24C93.7505 172.82 92.0327 171.945 90.605 170.693C89.1774 169.44 88.0851 167.851 87.4275 166.07C87.39 165.995 87.36 165.913 87.33 165.838Z" fill="#3DD5FF"/>
<path opacity="0.2" d="M87.33 165.838C87.0805 165.057 87.0173 164.229 87.1453 163.419C87.2733 162.61 87.5891 161.842 88.0673 161.176C88.5455 160.51 89.1728 159.966 89.8992 159.586C90.6255 159.207 91.4306 159.003 92.25 158.99C94.605 158.915 97.3125 159.32 99.39 161C104.017 164.75 119.19 167.3 132.885 154.768L135.518 158.81C135.518 158.81 119.962 179.06 95.6025 173.24C93.7505 172.82 92.0327 171.945 90.605 170.693C89.1774 169.44 88.0851 167.851 87.4275 166.07C87.39 165.995 87.36 165.913 87.33 165.838Z" fill="white"/>
<path opacity="0.08" d="M80.925 161.112C80.925 161.112 72.27 188.99 97.26 190.835L96.0975 196.355L77.595 197.787C73.3404 190.292 71.1824 181.79 71.3475 173.172C71.3475 173.172 71.505 166.062 76.515 162.92C77.84 162.011 79.3434 161.395 80.925 161.112Z" fill="black"/>
<path d="M73.3125 228.163L70.755 230.045C70.6579 230.114 70.5854 230.213 70.5481 230.326C70.5107 230.44 70.5103 230.562 70.5471 230.676C70.5838 230.789 70.6558 230.888 70.7525 230.958C70.8492 231.028 70.9656 231.066 71.085 231.065H75.375C75.5236 231.063 75.6656 231.003 75.7706 230.898C75.8757 230.793 75.9356 230.651 75.9375 230.503V228.163H73.3125Z" fill="#3DD5FF"/>
<path d="M93.555 228.163L95.9625 230.045C96.0564 230.118 96.1252 230.219 96.1591 230.333C96.1929 230.447 96.1903 230.569 96.1514 230.681C96.1125 230.794 96.0394 230.891 95.9423 230.96C95.8452 231.029 95.729 231.066 95.61 231.065H92.5575C92.1252 231.063 91.7112 230.89 91.4062 230.583C91.1012 230.277 90.93 229.862 90.93 229.43V228.163H93.555Z" fill="#3DD5FF"/>
<path d="M272.258 112.378H217.785V168.312H272.258V112.378Z" fill="#F2F2F2"/>
<path d="M261.188 126.177H227.625V128.187H261.188V126.177Z" fill="#A5A5A5"/>
<path d="M261.188 138.875H227.625V140.885H261.188V138.875Z" fill="#A5A5A5"/>
<path d="M261.188 151.572H227.625V153.582H261.188V151.572Z" fill="#A5A5A5"/>
<path d="M259.447 122.465H259.44C257.816 122.465 256.5 123.781 256.5 125.405V128.96C256.5 130.584 257.816 131.9 259.44 131.9H259.447C261.071 131.9 262.388 130.584 262.388 128.96V125.405C262.388 123.781 261.071 122.465 259.447 122.465Z" fill="#24285B"/>
<path d="M246.15 135.162H246.142C244.519 135.162 243.202 136.479 243.202 138.102V141.657C243.202 143.281 244.519 144.597 246.142 144.597H246.15C247.774 144.597 249.09 143.281 249.09 141.657V138.102C249.09 136.479 247.774 135.162 246.15 135.162Z" fill="#3DD5FF"/>
<path d="M237.15 147.867H237.143C235.519 147.867 234.202 149.184 234.202 150.807V154.362C234.202 155.986 235.519 157.303 237.143 157.303H237.15C238.774 157.303 240.09 155.986 240.09 154.362V150.807C240.09 149.184 238.774 147.867 237.15 147.867Z" fill="#FFD200"/>
<path d="M202.012 171.342H140.535V185.352H202.012V171.342Z" fill="white"/>
<path d="M202.012 171.342H181.05V185.352H202.012V171.342Z" fill="#24285B"/>
<path d="M134.827 157.767C134.827 157.767 138.037 158.817 138.72 154.092L133.267 155.375L134.827 157.767Z" fill="#F4A28C"/>
<path opacity="0.08" d="M198.518 92.2625C198.518 92.2625 205.043 91.0175 207.293 82.0175C209.542 73.0175 204.75 65.87 209.377 64.7675C214.005 63.665 215.925 75.4025 215.925 75.4025C215.925 75.4025 216.105 84.5825 207.293 95.9375L198.518 92.2625Z" fill="black"/>
<path d="M212.378 62.6375C216.218 64.0025 222.217 66.7175 226.268 71.315C227.417 72.6227 228.267 74.1647 228.761 75.8341C229.254 77.5035 229.378 79.2603 229.125 80.9825L227.31 93.3275H222.997L223.192 82.0775C223.203 80.8885 222.829 79.7278 222.128 78.7674C221.427 77.8069 220.436 77.0978 219.3 76.745C214.642 75.32 207.495 72.155 207.487 66.155C207.48 65.5638 207.614 64.9795 207.881 64.4515C208.147 63.9236 208.536 63.4676 209.016 63.1224C209.496 62.7771 210.052 62.5528 210.637 62.4684C211.223 62.384 211.82 62.442 212.378 62.6375Z" fill="#3DD5FF"/>
<path opacity="0.2" d="M212.378 62.6375C216.218 64.0025 222.217 66.7175 226.268 71.315C227.417 72.6227 228.267 74.1647 228.761 75.8341C229.254 77.5035 229.378 79.2603 229.125 80.9825L227.31 93.3275H222.997L223.192 82.0775C223.203 80.8885 222.829 79.7278 222.128 78.7674C221.427 77.8069 220.436 77.0978 219.3 76.745C214.642 75.32 207.495 72.155 207.487 66.155C207.48 65.5638 207.614 64.9795 207.881 64.4515C208.147 63.9236 208.536 63.4676 209.016 63.1224C209.496 62.7771 210.052 62.5528 210.637 62.4684C211.223 62.384 211.82 62.442 212.378 62.6375Z" fill="white"/>
<path opacity="0.08" d="M201.75 161.112H173.753V164.517H201.75V161.112Z" fill="black"/>
</svg>
